PathFileType	4	(X/Y/Z)	7_coords_data.trc
DataRate	CameraRate	NumFrames	NumMarkers	Units	OrigDataRate	OrigDataStartFrame	OrigNumFrames
30.0	30.0	7	21	m	30.0	20	68
Frame#	Time	THUMB_TIP	THUMB_IP	THUMB_MCP	THUMB_CMC	INDEX_TIP	INDEX_DIP	INDEX_PIP	INDEX_MCP	MIDDLE_TIP	MIDDLE_DIP	MIDDLE_PIP	MIDDLE_MCP	RING_TIP	RING_DIP	RING_PIP	RING_MCP	PINKY_TIP	PINKY_DIP	PINKY_PIP	PINKY_MCP	WRIST
X1	Y1	Z1	X2	Y2	Z2	X3	Y3	Z3	X4	Y4	Z4	X5	Y5	Z5	X6	Y6	Z6	X7	Y7	Z7	X8	Y8	Z8	X9	Y9	Z9	X10	Y10	Z10	X11	Y11	Z11	X12	Y12	Z12	X13	Y13	Z13	X14	Y14	Z14	X15	Y15	Z15	X16	Y16	Z16	X17	Y17	Z17	X18	Y18	Z18	X19	Y19	Z19	X20	Y20	Z20	X21	Y21	Z21
19	0.6333333333333333	-0.03454059982299805	-0.0754041976928711	1.0246700439453125	-0.05088899993896484	-0.06363919830322265	1.0172100219726563	-0.06702330017089844	-0.043528701782226564	1.0073200073242188	-0.06853060150146484	-0.013344200134277343	1.00527001953125	-0.03093239974975586	-0.1299720001220703	0.9812009887695312	-0.036756401062011716	-0.11011100006103515	0.9778790283203125	-0.04277019882202148	-0.0893208999633789	0.9756840209960937	-0.04793999862670899	-0.05032949829101562	0.9691329956054687	-0.045352901458740234	-0.05173619842529297	1.0059299926757812	-0.035597900390625	-0.06873359680175781	1.0059600219726563	-0.018574800491333008	-0.07828369903564453	0.9910230102539063	-0.022899900436401367	-0.04331240081787109	0.9705440063476563	-0.037293701171875	-0.04602989959716797	1.019280029296875	-0.024157400131225585	-0.058566001892089846	1.0164400024414062	-0.005106040000915527	-0.06174810028076172	1.0049500122070312	-0.0082014799118042	-0.031550699234008786	0.983843994140625	0.04733089828491211	-0.05375709915161133	0.9968489990234375	0.031406900405883786	-0.04426229858398437	0.9988109741210938	0.01613629913330078	-0.0364651985168457	1.0002100219726562	-0.006510489940643309	-0.024424400329589844	1.0025800170898438	-0.06397430038452148	0.02454120063781738	1.005989990234375
20	0.6666666666666666	-0.03448469924926758	-0.0756436996459961	1.02547998046875	-0.05097309875488281	-0.06343730163574218	1.0180499877929687	-0.06697000122070312	-0.043525001525878904	1.008219970703125	-0.06839399719238282	-0.013235799789428711	1.0061500244140624	-0.03139430046081543	-0.12993299865722657	0.9819539794921875	-0.0371260986328125	-0.11004499816894531	0.97872802734375	-0.04300479888916016	-0.08920059967041015	0.9765889892578125	-0.0478296012878418	-0.050209400177001956	0.9696320190429687	-0.04503369903564453	-0.05164369964599609	1.0063499755859375	-0.035465301513671874	-0.06863500213623047	1.00652001953125	-0.018417200088500976	-0.0782522964477539	0.9916019897460937	-0.02277400016784668	-0.0430797004699707	0.9712750244140625	-0.03720610046386719	-0.046365699768066405	1.0199299926757812	-0.023859199523925782	-0.05842319869995117	1.0173099975585937	-0.004822329998016357	-0.06169260025024414	1.0054500122070313	-0.007960849761962891	-0.03141839981079102	0.9843369750976563	0.047811698913574216	-0.05292559814453125	0.997176025390625	0.031766799926757815	-0.0436864013671875	0.999281982421875	0.016412700653076172	-0.03606039810180664	1.0006400146484375	-0.006347129821777344	-0.024248199462890627	1.00327001953125	-0.0639729995727539	0.02448200035095215	1.0068300170898437
21	0.7	-0.03358530044555664	-0.07541310119628906	1.0263599853515626	-0.05086830139160156	-0.06350460052490234	1.0187999877929688	-0.06668910217285157	-0.04362129974365234	1.00875	-0.06821469879150391	-0.013454700469970703	1.0069299926757813	-0.031837099075317385	-0.12977200317382812	0.983552001953125	-0.03753279876708984	-0.10991200256347657	0.9804000244140625	-0.04321910095214844	-0.08907450103759766	0.9781740112304688	-0.04768280029296875	-0.05030789947509766	0.9706719970703125	-0.04429449844360352	-0.05172409820556641	1.0073099975585937	-0.034903900146484375	-0.06876170349121094	1.0074000244140624	-0.01796299934387207	-0.07809159851074218	0.9923389892578125	-0.02251689910888672	-0.04302859878540039	0.971916015625	-0.03669290161132813	-0.04625540161132812	1.0201799926757813	-0.023368900299072265	-0.05850630187988281	1.0181400146484374	-0.004307929992675781	-0.06135459899902344	1.0063499755859375	-0.007708000183105469	-0.031066600799560546	0.9850989990234374	0.048696098327636717	-0.051523300170898435	0.99710400390625	0.03247140121459961	-0.04267580032348633	0.9994749755859375	0.016971099853515626	-0.03540589904785156	1.0010800170898437	-0.005872719764709473	-0.024142900466918946	1.0038400268554688	-0.06388349914550781	0.024284500122070313	1.0076300048828124
22	0.7333333333333333	-0.032561698913574216	-0.07568199920654296	1.026530029296875	-0.050336700439453125	-0.06378620147705077	1.01925	-0.06598539733886719	-0.04394169998168945	1.0095999755859375	-0.06741419982910156	-0.014016300201416016	1.00802001953125	-0.03176180076599121	-0.12973199462890625	0.9843519897460937	-0.03748740005493164	-0.10980699920654297	0.9815250244140625	-0.04310800170898438	-0.08896040344238282	0.9794190063476562	-0.04722150039672852	-0.050204700469970706	0.9712449951171875	-0.04371419906616211	-0.051771999359130856	1.00797998046875	-0.034080101013183595	-0.06875270080566406	1.0080599975585938	-0.01716819953918457	-0.07804180145263671	0.9926209716796875	-0.022090299606323242	-0.043011600494384766	0.9724119873046875	-0.03575849914550781	-0.04666949844360352	1.0208599853515625	-0.022588800430297852	-0.05847460174560547	1.0186199951171875	-0.003546989917755127	-0.06137160110473633	1.006739990234375	-0.00709223985671997	-0.03103849983215332	0.9854359741210937	0.049643798828125	-0.050590099334716795	0.9967310180664063	0.03333990097045898	-0.04207809829711914	0.9994660034179688	0.017758899688720704	-0.035080101013183596	1.0013099975585937	-0.005180170059204101	-0.02427050018310547	1.0043300170898437	-0.06357279968261718	0.023943099975585937	1.0087100219726564
23	0.7666666666666667	-0.03267630004882813	-0.0762052993774414	1.0268699951171876	-0.04987739944458008	-0.06427680206298828	1.0195900268554687	-0.06536750030517578	-0.044000198364257816	1.0101900024414063	-0.06708689880371094	-0.014160200119018555	1.0086599731445312	-0.03193499946594238	-0.1298560028076172	0.9844110107421875	-0.03765969848632812	-0.10992299652099609	0.9820709838867188	-0.043195701599121096	-0.08900309753417969	0.9802509765625	-0.046821998596191405	-0.050317901611328125	0.971635009765625	-0.04335279846191406	-0.051956298828125	1.0088200073242188	-0.033686901092529295	-0.06904399871826172	1.0083300170898437	-0.016845300674438478	-0.07824949645996093	0.9929819946289062	-0.021713199615478514	-0.04301020050048828	0.9730230102539063	-0.03515790176391602	-0.04683819961547851	1.0211300048828125	-0.021971399307250977	-0.05920819854736328	1.0189500122070312	-0.003093790054321289	-0.06160300064086914	1.0069400024414064	-0.006584320068359375	-0.031338399887084964	0.9858410034179688	0.05038079833984375	-0.050162899017333985	0.9961649780273437	0.03392330169677735	-0.041955299377441406	0.999375	0.018288799285888672	-0.03511869812011719	1.0015399780273437	-0.004694540023803711	-0.024568199157714844	1.0049199829101563	-0.06315230178833008	0.02341469955444336	1.0094199829101562
24	0.8	-0.03160120010375977	-0.07657939910888673	1.0260699462890626	-0.04939059829711914	-0.06486000061035156	1.0195	-0.06510639953613281	-0.044871498107910156	1.0103200073242187	-0.06657720184326171	-0.015040800094604493	1.0091400146484375	-0.0325093994140625	-0.13009199523925782	0.9835919799804688	-0.03816960144042969	-0.1100270004272461	0.9816710205078125	-0.04354570007324219	-0.08913349914550782	0.980114013671875	-0.04707540130615234	-0.050542400360107424	0.9716129760742187	-0.04312960052490234	-0.05218429946899414	1.0086199951171875	-0.03340700149536133	-0.06951640319824219	1.0077999877929686	-0.016806100845336912	-0.07861830139160156	0.992177001953125	-0.021842199325561522	-0.043272899627685546	0.9725809936523437	-0.03494919967651367	-0.04720389938354492	1.0216199951171876	-0.021720399856567384	-0.05939799880981445	1.0187999877929688	-0.0029653000831604	-0.06229109954833984	1.00627001953125	-0.0064886298179626465	-0.031587099075317385	0.9855189819335938	0.050385101318359375	-0.051047298431396486	0.9943880004882812	0.03403609848022461	-0.04279100036621094	0.9979500122070313	0.018509199142456054	-0.03593230056762695	1.0005	-0.004247139930725097	-0.02538599967956543	1.0043699951171876	-0.06281370162963867	0.022855600357055663	1.010219970703125
25	0.8333333333333334	-0.03097960090637207	-0.07738819885253906	1.024719970703125	-0.04868510055541992	-0.06593090057373047	1.01897998046875	-0.06482659912109374	-0.04555799865722656	1.010010009765625	-0.06625019836425781	-0.015621899604797363	1.0094600219726562	-0.033541801452636716	-0.13033799743652344	0.9817039794921875	-0.03908750152587891	-0.11022100067138672	0.9802940063476563	-0.04433589935302734	-0.08922010040283203	0.9791710205078125	-0.04756420135498047	-0.0505364990234375	0.9709840087890625	-0.042665199279785154	-0.05309870147705078	1.0069000244140625	-0.033556098937988284	-0.07003330230712891	1.006989990234375	-0.017267900466918944	-0.07915450286865235	0.9908400268554688	-0.022165000915527342	-0.043432098388671875	0.9717109985351563	-0.034330898284912106	-0.04803530120849609	1.0200499877929687	-0.02176740074157715	-0.06072689819335937	1.0174299926757813	-0.00324960994720459	-0.06315689849853516	1.004989990234375	-0.006629559993743896	-0.03191749954223633	0.984864013671875	0.050007701873779294	-0.0523567008972168	0.9924569702148438	0.0338140983581543	-0.04393420028686523	0.9962990112304687	0.018334699630737306	-0.036997398376464846	0.9993489990234375	-0.004311190128326416	-0.026136199951171876	1.0038200073242187	-0.06259569931030273	0.022397600173950195	1.0109099731445312
